<svg width="8" height="12" viewBox="0 0 8 12" fill="none" xmlns="http://www.w3.org/2000/svg">
<path d="M1.16981 6.71005L5.40981 10.9501C5.50278 11.0438 5.61338 11.1182 5.73524 11.1689C5.8571 11.2197 5.9878 11.2458 6.11981 11.2458C6.25182 11.2458 6.38253 11.2197 6.50439 11.1689C6.62625 11.1182 6.73685 11.0438 6.82981 10.9501C7.01606 10.7627 7.12061 10.5092 7.12061 10.2451C7.12061 9.98087 7.01606 9.72741 6.82981 9.54005L3.28981 6.00005L6.82981 2.46005C7.01606 2.27269 7.12061 2.01924 7.12061 1.75505C7.12061 1.49086 7.01606 1.23741 6.82981 1.05005C6.73637 0.957369 6.62556 0.884045 6.50372 0.83428C6.38188 0.784515 6.25142 0.759291 6.11981 0.760052C5.98821 0.759291 5.85774 0.784515 5.73591 0.83428C5.61407 0.884044 5.50325 0.957369 5.40981 1.05005L1.16981 5.29005C1.07609 5.38301 1.00169 5.49361 0.950923 5.61547C0.900154 5.73733 0.874015 5.86804 0.874015 6.00005C0.874015 6.13206 0.900154 6.26277 0.950922 6.38463C1.00169 6.50649 1.07609 6.61709 1.16981 6.71005Z" fill="#EBEBEB"/>
</svg>
