<svg width="24" height="24" viewBox="0 0 24 24" fill="none" xmlns="http://www.w3.org/2000/svg">
<g clip-path="url(#clip0_164_5143)">
<mask id="mask0_164_5143" style="mask-type:luminance" maskUnits="userSpaceOnUse" x="0" y="0" width="24" height="24">
<path d="M24 0H0V24H24V0Z" fill="white"/>
</mask>
<g mask="url(#mask0_164_5143)">
<path d="M12 17C14.7614 17 17 14.7614 17 12C17 9.23858 14.7614 7 12 7C9.23858 7 7 9.23858 7 12C7 14.7614 9.23858 17 12 17Z" stroke="#050510" stroke-width="2" stroke-linecap="round" stroke-linejoin="round"/>
<path d="M12 1V3" stroke="#050510" stroke-width="2" stroke-linecap="round" stroke-linejoin="round"/>
<path d="M12 21V23" stroke="#050510" stroke-width="2" stroke-linecap="round" stroke-linejoin="round"/>
<path d="M4.21973 4.21997L5.63973 5.63997" stroke="#050510" stroke-width="2" stroke-linecap="round" stroke-linejoin="round"/>
<path d="M18.3599 18.36L19.7799 19.78" stroke="#050510" stroke-width="2" stroke-linecap="round" stroke-linejoin="round"/>
<path d="M1 12H3" stroke="#050510" stroke-width="2" stroke-linecap="round" stroke-linejoin="round"/>
<path d="M21 12H23" stroke="#050510" stroke-width="2" stroke-linecap="round" stroke-linejoin="round"/>
<path d="M4.21973 19.78L5.63973 18.36" stroke="#050510" stroke-width="2" stroke-linecap="round" stroke-linejoin="round"/>
<path d="M18.3599 5.63997L19.7799 4.21997" stroke="#050510" stroke-width="2" stroke-linecap="round" stroke-linejoin="round"/>
</g>
</g>
<defs>
<clipPath id="clip0_164_5143">
<rect width="24" height="24" fill="white"/>
</clipPath>
</defs>
</svg>
